<?xml version="1.0" encoding="UTF-8"?>
<svg id="Layer_1" data-name="Layer 1" xmlns="http://www.w3.org/2000/svg" viewBox="0 0 500 500">
  <defs>
    <style>
      .cls-1 {
        fill: #fff;
        stroke-width: 0px;
      }
    </style>
  </defs>
  <polygon class="cls-1" points="500 96.63 500 53.77 400 53.77 400 96.63 300 96.63 300 53.77 200 53.77 200 96.63 100 96.63 100 53.77 0 53.77 0 96.63 100 96.63 100 139.48 50 139.48 50 182.34 0 182.34 0 219.2 25 219.2 25 319.2 0 319.2 0 446.23 50 446.23 50 319.2 100 319.2 100 446.23 142.86 446.23 142.86 319.2 185.71 319.2 185.71 446.23 228.57 446.23 228.57 319.2 271.43 319.2 271.43 446.23 314.29 446.23 314.29 319.2 357.14 319.2 357.14 446.23 400 446.23 400 319.2 450 319.2 450 446.23 500 446.23 500 319.2 475 319.2 475 219.2 500 219.2 500 182.34 450 182.34 450 139.48 400 139.48 400 96.63 500 96.63"/>
</svg>